<?xml version="1.0" encoding="UTF-8"?>
<svg width="26px" height="26px" viewBox="0 0 26 26" version="1.1" xmlns="http://www.w3.org/2000/svg" xmlns:xlink="http://www.w3.org/1999/xlink">
    <!-- Generator: Sketch 53.2 (72643) - https://sketchapp.com -->
    <title>Icon/ blog</title>
    <desc>Created with Sketch.</desc>
    <g id="Icon/-blog" stroke="none" stroke-width="1" fill="none" fill-rule="evenodd">
        <g id="Blog-closed" transform="translate(4.000000, 0.000000)" fill="#2B2B2B">
            <g id="Group-15">
                <g id="Group-16" fill-rule="nonzero">
                    <path d="M17.8407551,22.8283793 C17.5143976,24.0775443 16.3703531,25 15.0091339,25 L4.43413388,25 C3.9370776,25 3.53413388,24.6002542 3.53413388,24.1071429 L3.53413388,23.2139924 L0.9,23.2139924 C0.402943725,23.2139924 -7.24531546e-14,22.8142466 -7.10542736e-14,22.3211352 L-7.10542736e-14,0.892563801 C-1.02828857e-13,0.399452417 0.402943725,-0.00029334223 0.9,-0.00029334223 L15.075,-0.00029334223 C16.6904329,-0.00029334223 18,1.29888037 18,2.90149237 L18,22.3211352 C18,22.5095429 17.9411764,22.6843206 17.8407551,22.8283793 Z M16.2,2.67827809 C16.2,2.06188886 15.6963203,1.78542094 15.075,1.78542094 L1.8,1.78542094 L1.8,21.4282781 L3.53413388,21.4282781 L3.53413388,5.35714286 C3.53413388,4.86403147 3.9370776,4.46428571 4.43413388,4.46428571 L15.0091339,4.46428571 C16.2,4.46428571 16.2,3.57113523 16.2,3.57113523 L16.2,2.67857143 Z M4.05,3.57113523 C3.80147186,3.57113523 3.6,3.37126235 3.6,3.12470666 C3.6,2.87815097 3.80147186,2.67827809 4.05,2.67827809 L14.4,2.67827809 C14.6485281,2.67827809 14.85,2.87815097 14.85,3.12470666 C14.85,3.37126235 14.6485281,3.57113523 14.4,3.57113523 L4.05,3.57113523 Z" id="Oval-2" transform="translate(9.000000, 12.499853) rotate(180.000000) translate(-9.000000, -12.499853) "></path>
                </g>
            </g>
        </g>
    </g>
</svg>