<?xml version="1.0" encoding="UTF-8"?>
<svg width="26px" height="26px" viewBox="0 0 26 26" version="1.1" xmlns="http://www.w3.org/2000/svg" xmlns:xlink="http://www.w3.org/1999/xlink">
    <!-- Generator: Sketch 53.2 (72643) - https://sketchapp.com -->
    <title>Icons/ link</title>
    <desc>Created with Sketch.</desc>
    <g id="Icons/-link" stroke="none" stroke-width="1" fill="none" fill-rule="evenodd">
        <g id="Link-Copy" transform="translate(3.000000, 2.000000)" fill="#2B2B2B" fill-rule="nonzero">
            <path d="M10.4166434,8.94893485 C9.87724532,8.94893485 9.43997676,8.51166629 9.43997676,7.97226819 C9.43997676,7.4328701 9.87724532,6.99560154 10.4166434,6.99560154 C13.1136339,6.99560154 15.2999767,9.18194432 15.2999767,11.8789348 L15.2999767,15.1344903 C15.2999767,17.8314808 13.1136339,20.0178236 10.4166434,20.0178236 C7.71965292,20.0178236 5.53331014,17.8314808 5.53331014,15.1344903 C5.53331014,14.5950922 5.9705787,14.1578237 6.50997679,14.1578237 C7.04937489,14.1578237 7.48664345,14.5950922 7.48664345,15.1344903 C7.48664345,16.7526846 8.79844912,18.0644903 10.4166434,18.0644903 C12.0348377,18.0644903 13.3466434,16.7526846 13.3466434,15.1344903 L13.3466434,11.8789348 C13.3466434,10.2607405 12.0348377,8.94893485 10.4166434,8.94893485 Z M10.4166434,12.2044904 C10.9560415,12.2044904 11.3933101,12.6417589 11.3933101,13.181157 C11.3933101,13.7205551 10.9560415,14.1578237 10.4166434,14.1578237 C7.74236773,14.1578237 5.53331014,12.1812985 5.53331014,9.68571847 L5.53331014,5.60770682 C5.53331014,3.11212683 7.74236773,1.13560161 10.4166434,1.13560161 C13.0909191,1.13560161 15.2999767,3.11212683 15.2999767,5.60770682 C15.2999767,6.14710492 14.8627081,6.58437347 14.32331,6.58437347 C13.7839119,6.58437347 13.3466434,6.14710492 13.3466434,5.60770682 C13.3466434,4.242332 12.0575525,3.08893492 10.4166434,3.08893492 C8.7757343,3.08893492 7.48664345,4.242332 7.48664345,5.60770682 L7.48664345,9.68571847 C7.48664345,11.0510933 8.7757343,12.2044904 10.4166434,12.2044904 Z" id="Combined-Shape-Copy-2" transform="translate(10.416643, 10.576713) rotate(50.000000) translate(-10.416643, -10.576713) "></path>
        </g>
        <rect id="Rectangle-Copy-8" x="0" y="0" width="26" height="26"></rect>
    </g>
</svg>