<?xml version="1.0" encoding="UTF-8"?>
<svg width="26px" height="26px" viewBox="0 0 26 26" version="1.1" xmlns="http://www.w3.org/2000/svg" xmlns:xlink="http://www.w3.org/1999/xlink">
    <!-- Generator: Sketch 53.2 (72643) - https://sketchapp.com -->
    <title>Icon/ Loading</title>
    <desc>Created with Sketch.</desc>
    <g id="Icon/-Loading" stroke="none" stroke-width="1" fill="none" fill-rule="evenodd">
        <g id="Load" transform="translate(-2.000000, -1.000000)" fill="currentColor" fill-rule="nonzero">
            <path d="M9.1523135,22.5893327 L9.1523135,19.288754 C9.1523135,18.7955109 9.55216601,18.3956584 10.0454091,18.3956584 C10.5386522,18.3956584 10.9385047,18.7955109 10.9385047,19.288754 L10.9385047,24.3496289 C10.9385047,24.842872 10.5386522,25.2427245 10.0454091,25.2427245 L4.68683559,25.2427245 C4.19359252,25.2427245 3.79374001,24.842872 3.79374001,24.3496289 C3.79374001,23.8563859 4.19359252,23.4565334 4.68683559,23.4565334 L7.42011624,23.4565334 C6.34171789,22.3889158 5.47702721,21.0993415 4.89289281,19.6632683 C4.33433317,18.2900696 4.04297502,16.8104624 4.04297502,15.2905719 C4.04297502,9.03506277 8.96784277,3.96397069 15.042975,3.96397069 C21.1181073,3.96397069 26.042975,9.03506277 26.042975,15.2905719 C26.042975,20.0585791 23.1552328,24.266342 18.8877457,25.9057861 C18.4262417,26.0830826 17.9125359,25.8415786 17.7403518,25.366372 C17.5681677,24.8911654 17.8027079,24.3622072 18.264212,24.1849108 C21.8395077,22.8113864 24.2591912,19.2856373 24.2591912,15.2905719 C24.2591912,10.0494697 20.1329507,5.80071683 15.042975,5.80071683 C9.95299935,5.80071683 5.82675881,10.0494697 5.82675881,15.2905719 C5.82675881,16.5657322 6.07063987,17.804236 6.53819298,18.9536984 C7.11396463,20.3692121 8.01604101,21.6158434 9.1523135,22.5893327 Z" id="Combined-Shape" transform="translate(14.918358, 14.963971) scale(1, -1) rotate(330.000000) translate(-14.918358, -14.963971) "></path>
        </g>
    </g>
</svg>