<?xml version="1.0" encoding="UTF-8"?>
<svg width="26px" height="26px" viewBox="0 0 26 26" version="1.1" xmlns="http://www.w3.org/2000/svg" xmlns:xlink="http://www.w3.org/1999/xlink">
    <!-- Generator: Sketch 53.2 (72643) - https://sketchapp.com -->
    <title>Icon/ Read</title>
    <desc>Created with Sketch.</desc>
    <g id="Icon/-Read" stroke="none" stroke-width="1" fill="none" fill-rule="evenodd">
        <g id="Group-Copy-2" transform="translate(2.000000, 3.000000)" fill="currentColor" fill-rule="nonzero">
            <path d="M0.00134478486,15.5189253 C0.00045192989,15.5026835 0,15.4863323 0,15.4698822 L0,3.4375 C0,1.53902117 1.64162258,0 3.66666667,0 C4.21895142,0 4.66666667,0.419733047 4.66666667,0.9375 C4.66666667,1.45526695 4.21895142,1.875 3.66666667,1.875 C2.74619208,1.875 2,2.57455508 2,3.4375 L2,12.0341808 C2.75588899,11.5398843 3.67516791,11.25 4.66666667,11.25 C6.29008384,11.25 7.71988895,12.0271423 8.55589191,13.2062487 C9.13069228,12.7648568 9.86568714,12.5 10.6666667,12.5 C11.4676462,12.5 12.2026411,12.7648568 12.7774414,13.2062487 C13.6134444,12.0271423 15.0432495,11.25 16.6666667,11.25 C17.6581654,11.25 18.5774443,11.5398843 19.3333333,12.0341808 L19.3333333,3.4375 C19.3333333,1.53902117 20.9749559,0 23,0 C23.5522847,0 24,0.419733047 24,0.9375 C24,1.45526695 23.5522847,1.875 23,1.875 C22.0795254,1.875 21.3333333,2.57455508 21.3333333,3.4375 L21.3333333,15.4698822 C21.3333333,15.4863323 21.3328814,15.5026835 21.3319885,15.5189253 C21.3328834,15.5541819 21.3333333,15.5895417 21.3333333,15.625 C21.3333333,18.0412458 19.2439955,20 16.6666667,20 C14.0893378,20 12,18.0412458 12,15.625 C12,14.9346441 11.4030463,14.375 10.6666667,14.375 C9.930287,14.375 9.33333333,14.9346441 9.33333333,15.625 C9.33333333,18.0412458 7.2439955,20 4.66666667,20 C2.08933783,20 0,18.0412458 0,15.625 C0,15.5895417 0.000449948545,15.5541819 0.00134478486,15.5189253 Z M4.66666667,18.125 C6.139426,18.125 7.33333333,17.0057119 7.33333333,15.625 C7.33333333,14.2442881 6.139426,13.125 4.66666667,13.125 C3.19390733,13.125 2,14.2442881 2,15.625 C2,17.0057119 3.19390733,18.125 4.66666667,18.125 Z M16.6666667,18.125 C18.139426,18.125 19.3333333,17.0057119 19.3333333,15.625 C19.3333333,14.2442881 18.139426,13.125 16.6666667,13.125 C15.1939073,13.125 14,14.2442881 14,15.625 C14,17.0057119 15.1939073,18.125 16.6666667,18.125 Z" id="Combined-Shape"></path>
        </g>
        <rect id="Rectangle" x="0" y="0" width="26" height="26"></rect>
    </g>
</svg>