<?xml version="1.0" encoding="UTF-8"?>
<svg width="26px" height="26px" viewBox="0 0 26 26" version="1.1" xmlns="http://www.w3.org/2000/svg" xmlns:xlink="http://www.w3.org/1999/xlink">
    <!-- Generator: Sketch 53.2 (72643) - https://sketchapp.com -->
    <title>Icon/ View</title>
    <desc>Created with Sketch.</desc>
    <g id="Icon/-View" stroke="none" stroke-width="1" fill="none" fill-rule="evenodd">
        <path d="M13,21 C9.22397973,21 5.51409636,19.0431303 1.87885242,15.2081319 C0.707046131,13.9719355 0.707049672,12.0280389 1.87886017,10.79186 C5.51410162,6.95686689 9.22398242,5 13,5 C16.7760203,5 20.4859036,6.95686965 24.1211476,10.7918681 C25.2929539,12.0280645 25.2929503,13.9719611 24.1211398,15.20814 C20.4858984,19.0431331 16.7760176,21 13,21 Z M13,18.8666667 C16.1263564,18.8666667 19.3188496,17.1827085 22.5859884,13.7360448 C22.9765913,13.3239858 22.9765925,12.6760228 22.5859894,12.2639563 C19.3188544,8.81729404 16.1263587,7.13333333 13,7.13333333 C9.87364358,7.13333333 6.68115038,8.81729154 3.4140116,12.2639552 C3.0234087,12.6760142 3.02340752,13.3239772 3.41401059,13.7360437 C6.68114565,17.182706 9.87364127,18.8666667 13,18.8666667 Z M12.6658193,16.7333333 C10.3229633,16.7333333 8.42370317,14.8230816 8.42370317,12.4666667 C8.42370317,10.1102517 10.3229633,8.2 12.6658193,8.2 C15.0086754,8.2 16.9079355,10.1102517 16.9079355,12.4666667 C16.9079355,14.8230816 15.0086754,16.7333333 12.6658193,16.7333333 Z M12.6658193,14.6 C13.8372474,14.6 14.7868774,13.6448741 14.7868774,12.4666667 C14.7868774,11.2884592 13.8372474,10.3333333 12.6658193,10.3333333 C11.4943913,10.3333333 10.5447612,11.2884592 10.5447612,12.4666667 C10.5447612,13.6448741 11.4943913,14.6 12.6658193,14.6 Z" id="Combined-Shape" fill="#2B2B2B" fill-rule="nonzero"></path>
        <rect id="Rectangle-Copy-2" x="0" y="0" width="26" height="26"></rect>
    </g>
</svg>